<svg width="556" height="175" xmlns="http://www.w3.org/2000/svg" xmlns:xlink="http://www.w3.org/1999/xlink" xml:space="preserve" overflow="hidden"><defs><clipPath id="clip0"><rect x="388" y="281" width="504" height="158"/></clipPath></defs><g transform="translate(-362 -272)"><g clip-path="url(#clip0)"><path d="M-70.1755 0 431.849 0 431.849 157.085-70.1755 157.085Z" fill="#FFFFFF" transform="matrix(1.0022 0 0 1 458.495 281.971)"/><path d="M328.205 25.9109 360.594 25.9109 360.594 69.0958 328.205 69.0958Z" transform="matrix(1.0022 0 0 1 458.495 281.971)"/><path d="M326.046 23.7517 358.435 23.7517 358.435 66.9366 326.046 66.9366Z" fill="#477777" transform="matrix(1.0022 0 0 1 458.495 281.971)"/><path d="M326.046 23.7517 358.435 23.7517 358.435 66.9366 326.046 66.9366Z" stroke="#2D2D2D" stroke-width="0.539811" stroke-miterlimit="10" fill="none" transform="matrix(1.0022 0 0 1 458.495 281.971)"/><path d="M323.887 21.5925 356.275 21.5925 356.275 64.7774 323.887 64.7774Z" fill="#73ACAC" transform="matrix(1.0022 0 0 1 458.495 281.971)"/><path d="M323.887 21.5925 356.275 21.5925 356.275 64.7774 323.887 64.7774Z" stroke="#2D2D2D" stroke-width="0.539811" stroke-miterlimit="10" fill="none" transform="matrix(1.0022 0 0 1 458.495 281.971)"/><path d="M323.887 44.8043 327.665 43.1849 323.887 41.5655" stroke="#2D2D2D" stroke-width="0.539811" stroke-miterlimit="10" fill="none" transform="matrix(1.0022 0 0 1 458.495 281.971)"/><text font-family="Arial,Arial_MSFontService,sans-serif" font-weight="400" font-size="12" transform="matrix(0.541 0 0 0.539811 781.64 301)">l</text><text font-family="Arial,Arial_MSFontService,sans-serif" font-weight="400" font-size="12" transform="matrix(0.541 0 0 0.539811 783.082 301)">a</text><text font-family="Arial,Arial_MSFontService,sans-serif" font-weight="400" font-size="12" transform="matrix(0.541 0 0 0.539811 786.691 301)">t</text><text font-family="Arial,Arial_MSFontService,sans-serif" font-weight="400" font-size="12" transform="matrix(0.541 0 0 0.539811 788.496 301)">c</text><text font-family="Arial,Arial_MSFontService,sans-serif" font-weight="400" font-size="12" transform="matrix(0.541 0 0 0.539811 791.742 301)">h</text><text font-family="Arial,Arial_MSFontService,sans-serif" font-weight="400" font-size="12" transform="matrix(0.541 0 0 0.539811 795.351 301)">_</text><text font-family="Arial,Arial_MSFontService,sans-serif" font-weight="400" font-size="12" transform="matrix(0.541 0 0 0.539811 798.961 301)">a</text><text font-family="Arial,Arial_MSFontService,sans-serif" font-weight="400" font-size="12" transform="matrix(0.541 0 0 0.539811 802.571 301)">[</text><text font-family="Arial,Arial_MSFontService,sans-serif" font-weight="400" font-size="12" transform="matrix(0.541 0 0 0.539811 804.375 301)">3</text><text font-family="Arial,Arial_MSFontService,sans-serif" font-weight="400" font-size="12" transform="matrix(0.541 0 0 0.539811 807.985 301)">.</text><text font-family="Arial,Arial_MSFontService,sans-serif" font-weight="400" font-size="12" transform="matrix(0.541 0 0 0.539811 809.79 301)">.</text><text font-family="Arial,Arial_MSFontService,sans-serif" font-weight="400" font-size="12" transform="matrix(0.541 0 0 0.539811 811.594 301)">0</text><text font-family="Arial,Arial_MSFontService,sans-serif" font-weight="400" font-size="12" transform="matrix(0.541 0 0 0.539811 815.204 301)">]</text><path d="M318.489 32.3887 323.887 32.3887" stroke="#06476F" stroke-width="1.61943" stroke-miterlimit="10" fill="none" transform="matrix(1.0022 0 0 1 458.495 281.971)"/><text fill="#06476F" font-family="Arial,Arial_MSFontService,sans-serif" font-weight="400" font-size="10" transform="matrix(0.541 0 0 0.539811 784.177 316)">D</text><path d="M318.489 43.1849 323.887 43.1849" stroke="#06476F" stroke-width="1.61943" stroke-miterlimit="10" fill="none" transform="matrix(1.0022 0 0 1 458.495 281.971)"/><text fill="#06476F" font-family="Arial,Arial_MSFontService,sans-serif" font-weight="400" font-size="10" transform="matrix(0.541 0 0 0.539811 787.964 327)">C</text><text fill="#06476F" font-family="Arial,Arial_MSFontService,sans-serif" font-weight="400" font-size="10" transform="matrix(0.541 0 0 0.539811 791.87 327)">L</text><text fill="#06476F" font-family="Arial,Arial_MSFontService,sans-serif" font-weight="400" font-size="10" transform="matrix(0.541 0 0 0.539811 794.878 327)">K</text><path d="M318.489 53.9811 323.887 53.9811" stroke="#06476F" stroke-width="1.61943" stroke-miterlimit="10" fill="none" transform="matrix(1.0022 0 0 1 458.495 281.971)"/><text fill="#06476F" font-family="Arial,Arial_MSFontService,sans-serif" font-weight="400" font-size="10" transform="matrix(0.541 0 0 0.539811 784.177 338)">S</text><text fill="#06476F" font-family="Arial,Arial_MSFontService,sans-serif" font-weight="400" font-size="10" transform="matrix(0.541 0 0 0.539811 787.785 338)">C</text><text fill="#06476F" font-family="Arial,Arial_MSFontService,sans-serif" font-weight="400" font-size="10" transform="matrix(0.541 0 0 0.539811 791.691 338)">L</text><text fill="#06476F" font-family="Arial,Arial_MSFontService,sans-serif" font-weight="400" font-size="10" transform="matrix(0.541 0 0 0.539811 794.699 338)">R</text><text fill="#06476F" font-family="Arial,Arial_MSFontService,sans-serif" font-weight="400" font-size="12" transform="matrix(0.541 0 0 0.539811 769.743 334)">4</text><text fill="#06476F" font-family="Arial,Arial_MSFontService,sans-serif" font-weight="400" font-size="12" transform="matrix(0.541 0 0 0.539811 773.352 334)">'</text><text fill="#06476F" font-family="Arial,Arial_MSFontService,sans-serif" font-weight="400" font-size="12" transform="matrix(0.541 0 0 0.539811 774.592 334)">h</text><text fill="#06476F" font-family="Arial,Arial_MSFontService,sans-serif" font-weight="400" font-size="12" transform="matrix(0.541 0 0 0.539811 778.202 334)">0</text><path d="M361.674 43.1849 356.275 43.1849" stroke="#06476F" stroke-width="1.61943" stroke-miterlimit="10" fill="none" transform="matrix(1.0022 0 0 1 458.495 281.971)"/><text fill="#06476F" font-family="Arial,Arial_MSFontService,sans-serif" font-weight="400" font-size="10" transform="matrix(0.541 0 0 0.539811 810.264 327)">Q</text><path d="M106.883 20.5128 128.475 28.61 128.475 44.8043 106.883 52.9015Z" transform="matrix(1.0022 0 0 1 458.495 281.971)"/><path d="M104.723 18.3536 126.316 26.4508 126.316 42.6451 104.723 50.7423Z" fill="#477777" transform="matrix(1.0022 0 0 1 458.495 281.971)"/><path d="M104.723 18.3536 126.316 26.4508 126.316 42.6451 104.723 50.7423Z" stroke="#2D2D2D" stroke-width="0.539811" stroke-miterlimit="10" fill="none" transform="matrix(1.0022 0 0 1 458.495 281.971)"/><path d="M102.564 16.1943 124.157 24.2915 124.157 40.4858 102.564 48.583Z" fill="#73ACAC" transform="matrix(1.0022 0 0 1 458.495 281.971)"/><path d="M102.564 16.1943 124.157 24.2915 124.157 40.4858 102.564 48.583Z" stroke="#2D2D2D" stroke-width="0.539811" stroke-miterlimit="10" fill="none" transform="matrix(1.0022 0 0 1 458.495 281.971)"/><text font-family="Arial,Arial_MSFontService,sans-serif" font-weight="400" font-size="12" transform="matrix(0.541 0 0 0.539811 574.269 300)">l</text><text font-family="Arial,Arial_MSFontService,sans-serif" font-weight="400" font-size="12" transform="matrix(0.541 0 0 0.539811 575.71 300)">a</text><text font-family="Arial,Arial_MSFontService,sans-serif" font-weight="400" font-size="12" transform="matrix(0.541 0 0 0.539811 579.319 300)">t</text><text font-family="Arial,Arial_MSFontService,sans-serif" font-weight="400" font-size="12" transform="matrix(0.541 0 0 0.539811 581.124 300)">c</text><text font-family="Arial,Arial_MSFontService,sans-serif" font-weight="400" font-size="12" transform="matrix(0.541 0 0 0.539811 584.37 300)">h</text><text font-family="Arial,Arial_MSFontService,sans-serif" font-weight="400" font-size="12" transform="matrix(0.541 0 0 0.539811 587.98 300)">_</text><text font-family="Arial,Arial_MSFontService,sans-serif" font-weight="400" font-size="12" transform="matrix(0.541 0 0 0.539811 591.589 300)">a</text><text font-family="Arial,Arial_MSFontService,sans-serif" font-weight="400" font-size="12" transform="matrix(0.541 0 0 0.539811 595.199 300)">~</text><text font-family="Arial,Arial_MSFontService,sans-serif" font-weight="400" font-size="12" transform="matrix(0.541 0 0 0.539811 598.99 300)">[</text><text font-family="Arial,Arial_MSFontService,sans-serif" font-weight="400" font-size="12" transform="matrix(0.541 0 0 0.539811 600.795 300)">3</text><text font-family="Arial,Arial_MSFontService,sans-serif" font-weight="400" font-size="12" transform="matrix(0.541 0 0 0.539811 604.404 300)">.</text><text font-family="Arial,Arial_MSFontService,sans-serif" font-weight="400" font-size="12" transform="matrix(0.541 0 0 0.539811 606.209 300)">.</text><text font-family="Arial,Arial_MSFontService,sans-serif" font-weight="400" font-size="12" transform="matrix(0.541 0 0 0.539811 608.014 300)">0</text><text font-family="Arial,Arial_MSFontService,sans-serif" font-weight="400" font-size="12" transform="matrix(0.541 0 0 0.539811 611.624 300)">]</text><path d="M97.166 26.9906 102.564 26.9906" stroke="#06476F" stroke-width="1.61943" stroke-miterlimit="10" fill="none" transform="matrix(1.0022 0 0 1 458.495 281.971)"/><text fill="#06476F" font-family="Arial,Arial_MSFontService,sans-serif" font-weight="400" font-size="10" transform="matrix(0.541 0 0 0.539811 557.195 307)">0</text><path d="M97.166 37.7868 102.564 37.7868" stroke="#06476F" stroke-width="1.61943" stroke-miterlimit="10" fill="none" transform="matrix(1.0022 0 0 1 458.495 281.971)"/><text fill="#06476F" font-family="Arial,Arial_MSFontService,sans-serif" font-weight="400" font-size="10" transform="matrix(0.541 0 0 0.539811 557.195 318)">1</text><path d="M113.36 16.1943 113.36 20.5128" stroke="#06476F" stroke-width="1.61943" stroke-miterlimit="10" fill="none" transform="matrix(1.0022 0 0 1 458.495 281.971)"/><path d="M129.555 32.3887 124.157 32.3887" stroke="#06476F" stroke-width="1.61943" stroke-miterlimit="10" fill="none" transform="matrix(1.0022 0 0 1 458.495 281.971)"/><path d="M220.243 20.5128 241.835 28.61 241.835 44.8043 220.243 52.9015Z" transform="matrix(1.0022 0 0 1 458.495 281.971)"/><path d="M218.084 18.3536 239.676 26.4508 239.676 42.6451 218.084 50.7423Z" fill="#477777" transform="matrix(1.0022 0 0 1 458.495 281.971)"/><path d="M218.084 18.3536 239.676 26.4508 239.676 42.6451 218.084 50.7423Z" stroke="#2D2D2D" stroke-width="0.539811" stroke-miterlimit="10" fill="none" transform="matrix(1.0022 0 0 1 458.495 281.971)"/><path d="M215.925 16.1943 237.517 24.2915 237.517 40.4858 215.925 48.583Z" fill="#73ACAC" transform="matrix(1.0022 0 0 1 458.495 281.971)"/><path d="M215.925 16.1943 237.517 24.2915 237.517 40.4858 215.925 48.583Z" stroke="#2D2D2D" stroke-width="0.539811" stroke-miterlimit="10" fill="none" transform="matrix(1.0022 0 0 1 458.495 281.971)"/><text font-family="Arial,Arial_MSFontService,sans-serif" font-weight="400" font-size="12" transform="matrix(0.541 0 0 0.539811 687.879 300)">l</text><text font-family="Arial,Arial_MSFontService,sans-serif" font-weight="400" font-size="12" transform="matrix(0.541 0 0 0.539811 689.32 300)">a</text><text font-family="Arial,Arial_MSFontService,sans-serif" font-weight="400" font-size="12" transform="matrix(0.541 0 0 0.539811 692.929 300)">t</text><text font-family="Arial,Arial_MSFontService,sans-serif" font-weight="400" font-size="12" transform="matrix(0.541 0 0 0.539811 694.734 300)">c</text><text font-family="Arial,Arial_MSFontService,sans-serif" font-weight="400" font-size="12" transform="matrix(0.541 0 0 0.539811 697.98 300)">h</text><text font-family="Arial,Arial_MSFontService,sans-serif" font-weight="400" font-size="12" transform="matrix(0.541 0 0 0.539811 701.59 300)">_</text><text font-family="Arial,Arial_MSFontService,sans-serif" font-weight="400" font-size="12" transform="matrix(0.541 0 0 0.539811 705.199 300)">a</text><text font-family="Arial,Arial_MSFontService,sans-serif" font-weight="400" font-size="12" transform="matrix(0.541 0 0 0.539811 708.809 300)">~</text><text font-family="Arial,Arial_MSFontService,sans-serif" font-weight="400" font-size="12" transform="matrix(0.541 0 0 0.539811 712.6 300)">[</text><text font-family="Arial,Arial_MSFontService,sans-serif" font-weight="400" font-size="12" transform="matrix(0.541 0 0 0.539811 714.405 300)">7</text><text font-family="Arial,Arial_MSFontService,sans-serif" font-weight="400" font-size="12" transform="matrix(0.541 0 0 0.539811 718.014 300)">.</text><text font-family="Arial,Arial_MSFontService,sans-serif" font-weight="400" font-size="12" transform="matrix(0.541 0 0 0.539811 719.819 300)">.</text><text font-family="Arial,Arial_MSFontService,sans-serif" font-weight="400" font-size="12" transform="matrix(0.541 0 0 0.539811 721.624 300)">4</text><text font-family="Arial,Arial_MSFontService,sans-serif" font-weight="400" font-size="12" transform="matrix(0.541 0 0 0.539811 725.234 300)">]</text><path d="M210.526 26.9906 215.925 26.9906" stroke="#06476F" stroke-width="1.61943" stroke-miterlimit="10" fill="none" transform="matrix(1.0022 0 0 1 458.495 281.971)"/><text fill="#06476F" font-family="Arial,Arial_MSFontService,sans-serif" font-weight="400" font-size="10" transform="matrix(0.541 0 0 0.539811 670.805 307)">0</text><path d="M210.526 37.7868 215.925 37.7868" stroke="#06476F" stroke-width="1.61943" stroke-miterlimit="10" fill="none" transform="matrix(1.0022 0 0 1 458.495 281.971)"/><text fill="#06476F" font-family="Arial,Arial_MSFontService,sans-serif" font-weight="400" font-size="10" transform="matrix(0.541 0 0 0.539811 670.805 318)">1</text><text fill="#06476F" font-family="Arial,Arial_MSFontService,sans-serif" font-weight="400" font-size="12" transform="matrix(0.541 0 0 0.539811 656.674 318)">4</text><text fill="#06476F" font-family="Arial,Arial_MSFontService,sans-serif" font-weight="400" font-size="12" transform="matrix(0.541 0 0 0.539811 660.283 318)">'</text><text fill="#06476F" font-family="Arial,Arial_MSFontService,sans-serif" font-weight="400" font-size="12" transform="matrix(0.541 0 0 0.539811 661.523 318)">h</text><text fill="#06476F" font-family="Arial,Arial_MSFontService,sans-serif" font-weight="400" font-size="12" transform="matrix(0.541 0 0 0.539811 665.133 318)">0</text><path d="M226.721 16.1943 226.721 20.5128" stroke="#06476F" stroke-width="1.61943" stroke-miterlimit="10" fill="none" transform="matrix(1.0022 0 0 1 458.495 281.971)"/><path d="M242.915 32.3887 237.517 32.3887" stroke="#06476F" stroke-width="1.61943" stroke-miterlimit="10" fill="none" transform="matrix(1.0022 0 0 1 458.495 281.971)"/><path d="M0 48.583-3.77868 52.3617-11.336 52.3617-11.336 44.8043-3.77868 44.8043Z" stroke="#0000FF" stroke-width="0.539811" stroke-miterlimit="10" fill="none" transform="matrix(1.0022 0 0 1 458.495 281.971)"/><text font-family="Arial,Arial_MSFontService,sans-serif" font-weight="400" font-size="12" transform="matrix(0.541 0 0 0.539811 437.036 333)">c</text><text font-family="Arial,Arial_MSFontService,sans-serif" font-weight="400" font-size="12" transform="matrix(0.541 0 0 0.539811 440.282 333)">l</text><text font-family="Arial,Arial_MSFontService,sans-serif" font-weight="400" font-size="12" transform="matrix(0.541 0 0 0.539811 441.724 333)">k</text><path d="M383.266 43.1849 383.266 39.4062 390.823 39.4062 394.602 43.1849 390.823 46.9636 383.266 46.9636Z" stroke="#0000FF" stroke-width="1.61943" stroke-miterlimit="10" fill="none" transform="matrix(1.0022 0 0 1 458.495 281.971)"/><text font-family="Arial,Arial_MSFontService,sans-serif" font-weight="400" font-size="12" transform="matrix(0.541 0 0 0.539811 858.294 327)">q</text><text font-family="Arial,Arial_MSFontService,sans-serif" font-weight="400" font-size="12" transform="matrix(0.541 0 0 0.539811 861.903 327)">_</text><text font-family="Arial,Arial_MSFontService,sans-serif" font-weight="400" font-size="12" transform="matrix(0.541 0 0 0.539811 865.513 327)">a</text><text font-family="Arial,Arial_MSFontService,sans-serif" font-weight="400" font-size="12" transform="matrix(0.541 0 0 0.539811 869.122 327)">[</text><text font-family="Arial,Arial_MSFontService,sans-serif" font-weight="400" font-size="12" transform="matrix(0.541 0 0 0.539811 870.927 327)">3</text><text font-family="Arial,Arial_MSFontService,sans-serif" font-weight="400" font-size="12" transform="matrix(0.541 0 0 0.539811 874.536 327)">.</text><text font-family="Arial,Arial_MSFontService,sans-serif" font-weight="400" font-size="12" transform="matrix(0.541 0 0 0.539811 876.341 327)">.</text><text font-family="Arial,Arial_MSFontService,sans-serif" font-weight="400" font-size="12" transform="matrix(0.541 0 0 0.539811 878.146 327)">0</text><text font-family="Arial,Arial_MSFontService,sans-serif" font-weight="400" font-size="12" transform="matrix(0.541 0 0 0.539811 881.756 327)">]</text><path d="M0 37.7868-3.77868 41.5655-11.336 41.5655-11.336 34.0081-3.77868 34.0081Z" stroke="#0000FF" stroke-width="1.61943" stroke-miterlimit="10" fill="none" transform="matrix(1.0022 0 0 1 458.495 281.971)"/><text font-family="Arial,Arial_MSFontService,sans-serif" font-weight="400" font-size="12" transform="matrix(0.541 0 0 0.539811 400.214 322)">d</text><text font-family="Arial,Arial_MSFontService,sans-serif" font-weight="400" font-size="12" transform="matrix(0.541 0 0 0.539811 403.823 322)">a</text><text font-family="Arial,Arial_MSFontService,sans-serif" font-weight="400" font-size="12" transform="matrix(0.541 0 0 0.539811 407.433 322)">t</text><text font-family="Arial,Arial_MSFontService,sans-serif" font-weight="400" font-size="12" transform="matrix(0.541 0 0 0.539811 409.238 322)">a</text><text font-family="Arial,Arial_MSFontService,sans-serif" font-weight="400" font-size="12" transform="matrix(0.541 0 0 0.539811 412.847 322)">_</text><text font-family="Arial,Arial_MSFontService,sans-serif" font-weight="400" font-size="12" transform="matrix(0.541 0 0 0.539811 416.457 322)">i</text><text font-family="Arial,Arial_MSFontService,sans-serif" font-weight="400" font-size="12" transform="matrix(0.541 0 0 0.539811 417.898 322)">n</text><text font-family="Arial,Arial_MSFontService,sans-serif" font-weight="400" font-size="12" transform="matrix(0.541 0 0 0.539811 421.508 322)">p</text><text font-family="Arial,Arial_MSFontService,sans-serif" font-weight="400" font-size="12" transform="matrix(0.541 0 0 0.539811 425.117 322)">u</text><text font-family="Arial,Arial_MSFontService,sans-serif" font-weight="400" font-size="12" transform="matrix(0.541 0 0 0.539811 428.727 322)">t</text><text font-family="Arial,Arial_MSFontService,sans-serif" font-weight="400" font-size="12" transform="matrix(0.541 0 0 0.539811 430.531 322)">[</text><text font-family="Arial,Arial_MSFontService,sans-serif" font-weight="400" font-size="12" transform="matrix(0.541 0 0 0.539811 432.336 322)">3</text><text font-family="Arial,Arial_MSFontService,sans-serif" font-weight="400" font-size="12" transform="matrix(0.541 0 0 0.539811 435.946 322)">.</text><text font-family="Arial,Arial_MSFontService,sans-serif" font-weight="400" font-size="12" transform="matrix(0.541 0 0 0.539811 437.751 322)">.</text><text font-family="Arial,Arial_MSFontService,sans-serif" font-weight="400" font-size="12" transform="matrix(0.541 0 0 0.539811 439.555 322)">0</text><text font-family="Arial,Arial_MSFontService,sans-serif" font-weight="400" font-size="12" transform="matrix(0.541 0 0 0.539811 443.165 322)">]</text><path d="M0 64.7774-3.77868 68.556-11.336 68.556-11.336 60.9987-3.77868 60.9987Z" stroke="#0000FF" stroke-width="0.539811" stroke-miterlimit="10" fill="none" transform="matrix(1.0022 0 0 1 458.495 281.971)"/><text font-family="Arial,Arial_MSFontService,sans-serif" font-weight="400" font-size="12" transform="matrix(0.541 0 0 0.539811 416.82 349)">s</text><text font-family="Arial,Arial_MSFontService,sans-serif" font-weight="400" font-size="12" transform="matrix(0.541 0 0 0.539811 420.066 349)">a</text><text font-family="Arial,Arial_MSFontService,sans-serif" font-weight="400" font-size="12" transform="matrix(0.541 0 0 0.539811 423.676 349)">v</text><text font-family="Arial,Arial_MSFontService,sans-serif" font-weight="400" font-size="12" transform="matrix(0.541 0 0 0.539811 426.922 349)">e</text><text font-family="Arial,Arial_MSFontService,sans-serif" font-weight="400" font-size="12" transform="matrix(0.541 0 0 0.539811 430.531 349)">_</text><text font-family="Arial,Arial_MSFontService,sans-serif" font-weight="400" font-size="12" transform="matrix(0.541 0 0 0.539811 434.141 349)">a</text><text font-family="Arial,Arial_MSFontService,sans-serif" font-weight="400" font-size="12" transform="matrix(0.541 0 0 0.539811 437.751 349)">_</text><text font-family="Arial,Arial_MSFontService,sans-serif" font-weight="400" font-size="12" transform="matrix(0.541 0 0 0.539811 441.36 349)">n</text><path d="M18.8934 72.8745 18.8934 80.9717 32.3887 80.9717 32.3887 80.9717 34.0081 80.9717 35.6275 80.4319 36.7072 79.8921 37.7868 78.8125 39.4062 77.193 39.946 76.1134 40.4858 74.494 40.4858 72.8745 40.4858 71.2551 39.946 69.6357 39.4062 68.556 38.3266 67.4764 36.7072 65.857 35.6275 65.3172 34.0081 64.7774 32.3887 64.7774 32.3887 64.7774 18.8934 64.7774Z" transform="matrix(1.0022 0 0 1 458.495 281.971)"/><path d="M16.1943 70.1755 16.1943 78.2726 29.6896 78.2726 29.6896 78.2726 31.3091 78.2726 32.9285 77.7328 34.0081 77.193 35.0877 76.1134 36.7072 74.494 37.247 73.4143 37.7868 71.7949 37.7868 70.1755 37.7868 68.556 37.247 66.9366 36.7072 65.857 35.6275 64.7774 34.0081 63.1579 32.9285 62.6181 31.3091 62.0783 29.6896 62.0783 29.6896 62.0783 16.1943 62.0783Z" fill="#73ACAC" transform="matrix(1.0022 0 0 1 458.495 281.971)"/><path d="M16.1943 70.1755 16.1943 78.2726 29.6896 78.2726" stroke="#2D2D2D" stroke-width="0.539811" stroke-miterlimit="10" fill="none" transform="matrix(1.0022 0 0 1 458.495 281.971)"/><path d="M29.6896 62.0783C29.6896 62.0783 29.6896 62.0783 29.6896 62.0783 34.1616 62.0783 37.7868 65.7037 37.7868 70.1755 37.7868 74.6473 34.1616 78.2726 29.6896 78.2726" stroke="#2D2D2D" stroke-width="0.539811" stroke-miterlimit="10" fill="none" transform="matrix(1.0022 0 0 1 458.495 281.971)"/><path d="M29.6896 62.0783 16.1943 62.0783 16.1943 70.1755" stroke="#2D2D2D" stroke-width="0.539811" stroke-miterlimit="10" fill="none" transform="matrix(1.0022 0 0 1 458.495 281.971)"/><text font-family="Arial,Arial_MSFontService,sans-serif" font-weight="400" font-size="12" transform="matrix(0.541 0 0 0.539811 475.807 342)">a</text><text font-family="Arial,Arial_MSFontService,sans-serif" font-weight="400" font-size="12" transform="matrix(0.541 0 0 0.539811 479.416 342)">l</text><text font-family="Arial,Arial_MSFontService,sans-serif" font-weight="400" font-size="12" transform="matrix(0.541 0 0 0.539811 480.857 342)">w</text><text font-family="Arial,Arial_MSFontService,sans-serif" font-weight="400" font-size="12" transform="matrix(0.541 0 0 0.539811 485.545 342)">a</text><text font-family="Arial,Arial_MSFontService,sans-serif" font-weight="400" font-size="12" transform="matrix(0.541 0 0 0.539811 489.154 342)">y</text><text font-family="Arial,Arial_MSFontService,sans-serif" font-weight="400" font-size="12" transform="matrix(0.541 0 0 0.539811 492.4 342)">s</text><text font-family="Arial,Arial_MSFontService,sans-serif" font-weight="400" font-size="12" transform="matrix(0.541 0 0 0.539811 495.646 342)">0</text><path d="M16.1943 64.7774C16.1943 63.8829 15.4693 63.1579 14.5749 63.1579 13.6805 63.1579 12.9555 63.8829 12.9555 64.7774 12.9555 65.6718 13.6805 66.3968 14.5749 66.3968 15.4693 66.3968 16.1943 65.6718 16.1943 64.7774" stroke="#06476F" stroke-width="0.539811" stroke-miterlimit="10" fill="none" transform="matrix(1.0022 0 0 1 458.495 281.971)"/><path d="M10.7962 64.7774 12.9555 64.7774" stroke="#06476F" stroke-width="0.539811" stroke-miterlimit="10" fill="none" transform="matrix(1.0022 0 0 1 458.495 281.971)"/><path d="M16.1943 75.5736C16.1943 74.6791 15.4693 73.9541 14.5749 73.9541 13.6805 73.9541 12.9555 74.6791 12.9555 75.5736 12.9555 76.468 13.6805 77.193 14.5749 77.193 15.4693 77.193 16.1943 76.468 16.1943 75.5736" stroke="#06476F" stroke-width="0.539811" stroke-miterlimit="10" fill="none" transform="matrix(1.0022 0 0 1 458.495 281.971)"/><path d="M10.7962 75.5736 12.9555 75.5736" stroke="#06476F" stroke-width="0.539811" stroke-miterlimit="10" fill="none" transform="matrix(1.0022 0 0 1 458.495 281.971)"/><path d="M43.1849 70.1755 37.7868 70.1755" stroke="#06476F" stroke-width="0.539811" stroke-miterlimit="10" fill="none" transform="matrix(1.0022 0 0 1 458.495 281.971)"/><path d="M0 86.3698-3.77868 90.1485-11.336 90.1485-11.336 82.5911-3.77868 82.5911Z" stroke="#0000FF" stroke-width="0.539811" stroke-miterlimit="10" fill="none" transform="matrix(1.0022 0 0 1 458.495 281.971)"/><text font-family="Arial,Arial_MSFontService,sans-serif" font-weight="400" font-size="12" transform="matrix(0.541 0 0 0.539811 423.319 371)">r</text><text font-family="Arial,Arial_MSFontService,sans-serif" font-weight="400" font-size="12" transform="matrix(0.541 0 0 0.539811 425.481 371)">e</text><text font-family="Arial,Arial_MSFontService,sans-serif" font-weight="400" font-size="12" transform="matrix(0.541 0 0 0.539811 429.09 371)">s</text><text font-family="Arial,Arial_MSFontService,sans-serif" font-weight="400" font-size="12" transform="matrix(0.541 0 0 0.539811 432.336 371)">e</text><text font-family="Arial,Arial_MSFontService,sans-serif" font-weight="400" font-size="12" transform="matrix(0.541 0 0 0.539811 435.946 371)">t</text><text font-family="Arial,Arial_MSFontService,sans-serif" font-weight="400" font-size="12" transform="matrix(0.541 0 0 0.539811 437.751 371)">_</text><text font-family="Arial,Arial_MSFontService,sans-serif" font-weight="400" font-size="12" transform="matrix(0.541 0 0 0.539811 441.36 371)">n</text><path d="M328.205 101.485 360.594 101.485 360.594 144.669 328.205 144.669Z" transform="matrix(1.0022 0 0 1 458.495 281.971)"/><path d="M326.046 99.3253 358.435 99.3253 358.435 142.51 326.046 142.51Z" fill="#477777" transform="matrix(1.0022 0 0 1 458.495 281.971)"/><path d="M326.046 99.3253 358.435 99.3253 358.435 142.51 326.046 142.51Z" stroke="#2D2D2D" stroke-width="0.539811" stroke-miterlimit="10" fill="none" transform="matrix(1.0022 0 0 1 458.495 281.971)"/><path d="M323.887 97.166 356.275 97.166 356.275 140.351 323.887 140.351Z" fill="#73ACAC" transform="matrix(1.0022 0 0 1 458.495 281.971)"/><path d="M323.887 97.166 356.275 97.166 356.275 140.351 323.887 140.351Z" stroke="#2D2D2D" stroke-width="0.539811" stroke-miterlimit="10" fill="none" transform="matrix(1.0022 0 0 1 458.495 281.971)"/><path d="M323.887 120.378 327.665 118.758 323.887 117.139" stroke="#2D2D2D" stroke-width="0.539811" stroke-miterlimit="10" fill="none" transform="matrix(1.0022 0 0 1 458.495 281.971)"/><text font-family="Arial,Arial_MSFontService,sans-serif" font-weight="400" font-size="12" transform="matrix(0.541 0 0 0.539811 781.64 377)">l</text><text font-family="Arial,Arial_MSFontService,sans-serif" font-weight="400" font-size="12" transform="matrix(0.541 0 0 0.539811 783.082 377)">a</text><text font-family="Arial,Arial_MSFontService,sans-serif" font-weight="400" font-size="12" transform="matrix(0.541 0 0 0.539811 786.691 377)">t</text><text font-family="Arial,Arial_MSFontService,sans-serif" font-weight="400" font-size="12" transform="matrix(0.541 0 0 0.539811 788.496 377)">c</text><text font-family="Arial,Arial_MSFontService,sans-serif" font-weight="400" font-size="12" transform="matrix(0.541 0 0 0.539811 791.742 377)">h</text><text font-family="Arial,Arial_MSFontService,sans-serif" font-weight="400" font-size="12" transform="matrix(0.541 0 0 0.539811 795.351 377)">_</text><text font-family="Arial,Arial_MSFontService,sans-serif" font-weight="400" font-size="12" transform="matrix(0.541 0 0 0.539811 798.961 377)">b</text><text font-family="Arial,Arial_MSFontService,sans-serif" font-weight="400" font-size="12" transform="matrix(0.541 0 0 0.539811 802.571 377)">[</text><text font-family="Arial,Arial_MSFontService,sans-serif" font-weight="400" font-size="12" transform="matrix(0.541 0 0 0.539811 804.375 377)">3</text><text font-family="Arial,Arial_MSFontService,sans-serif" font-weight="400" font-size="12" transform="matrix(0.541 0 0 0.539811 807.985 377)">.</text><text font-family="Arial,Arial_MSFontService,sans-serif" font-weight="400" font-size="12" transform="matrix(0.541 0 0 0.539811 809.79 377)">.</text><text font-family="Arial,Arial_MSFontService,sans-serif" font-weight="400" font-size="12" transform="matrix(0.541 0 0 0.539811 811.594 377)">0</text><text font-family="Arial,Arial_MSFontService,sans-serif" font-weight="400" font-size="12" transform="matrix(0.541 0 0 0.539811 815.204 377)">]</text><path d="M318.489 107.962 323.887 107.962" stroke="#06476F" stroke-width="1.61943" stroke-miterlimit="10" fill="none" transform="matrix(1.0022 0 0 1 458.495 281.971)"/><text fill="#06476F" font-family="Arial,Arial_MSFontService,sans-serif" font-weight="400" font-size="10" transform="matrix(0.541 0 0 0.539811 784.177 392)">D</text><path d="M318.489 118.758 323.887 118.758" stroke="#06476F" stroke-width="1.61943" stroke-miterlimit="10" fill="none" transform="matrix(1.0022 0 0 1 458.495 281.971)"/><text fill="#06476F" font-family="Arial,Arial_MSFontService,sans-serif" font-weight="400" font-size="10" transform="matrix(0.541 0 0 0.539811 787.964 403)">C</text><text fill="#06476F" font-family="Arial,Arial_MSFontService,sans-serif" font-weight="400" font-size="10" transform="matrix(0.541 0 0 0.539811 791.87 403)">L</text><text fill="#06476F" font-family="Arial,Arial_MSFontService,sans-serif" font-weight="400" font-size="10" transform="matrix(0.541 0 0 0.539811 794.878 403)">K</text><path d="M318.489 129.555 323.887 129.555" stroke="#06476F" stroke-width="1.61943" stroke-miterlimit="10" fill="none" transform="matrix(1.0022 0 0 1 458.495 281.971)"/><text fill="#06476F" font-family="Arial,Arial_MSFontService,sans-serif" font-weight="400" font-size="10" transform="matrix(0.541 0 0 0.539811 784.177 413)">S</text><text fill="#06476F" font-family="Arial,Arial_MSFontService,sans-serif" font-weight="400" font-size="10" transform="matrix(0.541 0 0 0.539811 787.785 413)">C</text><text fill="#06476F" font-family="Arial,Arial_MSFontService,sans-serif" font-weight="400" font-size="10" transform="matrix(0.541 0 0 0.539811 791.691 413)">L</text><text fill="#06476F" font-family="Arial,Arial_MSFontService,sans-serif" font-weight="400" font-size="10" transform="matrix(0.541 0 0 0.539811 794.699 413)">R</text><text fill="#06476F" font-family="Arial,Arial_MSFontService,sans-serif" font-weight="400" font-size="12" transform="matrix(0.541 0 0 0.539811 769.743 410)">4</text><text fill="#06476F" font-family="Arial,Arial_MSFontService,sans-serif" font-weight="400" font-size="12" transform="matrix(0.541 0 0 0.539811 773.352 410)">'</text><text fill="#06476F" font-family="Arial,Arial_MSFontService,sans-serif" font-weight="400" font-size="12" transform="matrix(0.541 0 0 0.539811 774.592 410)">h</text><text fill="#06476F" font-family="Arial,Arial_MSFontService,sans-serif" font-weight="400" font-size="12" transform="matrix(0.541 0 0 0.539811 778.202 410)">0</text><path d="M361.674 118.758 356.275 118.758" stroke="#06476F" stroke-width="1.61943" stroke-miterlimit="10" fill="none" transform="matrix(1.0022 0 0 1 458.495 281.971)"/><text fill="#06476F" font-family="Arial,Arial_MSFontService,sans-serif" font-weight="400" font-size="10" transform="matrix(0.541 0 0 0.539811 810.264 403)">Q</text><path d="M106.883 112.281 128.475 120.378 128.475 136.572 106.883 144.669Z" transform="matrix(1.0022 0 0 1 458.495 281.971)"/><path d="M104.723 110.122 126.316 118.219 126.316 134.413 104.723 142.51Z" fill="#477777" transform="matrix(1.0022 0 0 1 458.495 281.971)"/><path d="M104.723 110.122 126.316 118.219 126.316 134.413 104.723 142.51Z" stroke="#2D2D2D" stroke-width="0.539811" stroke-miterlimit="10" fill="none" transform="matrix(1.0022 0 0 1 458.495 281.971)"/><path d="M102.564 107.962 124.157 116.059 124.157 132.254 102.564 140.351Z" fill="#73ACAC" transform="matrix(1.0022 0 0 1 458.495 281.971)"/><path d="M102.564 107.962 124.157 116.059 124.157 132.254 102.564 140.351Z" stroke="#2D2D2D" stroke-width="0.539811" stroke-miterlimit="10" fill="none" transform="matrix(1.0022 0 0 1 458.495 281.971)"/><text font-family="Arial,Arial_MSFontService,sans-serif" font-weight="400" font-size="12" transform="matrix(0.541 0 0 0.539811 574.269 392)">l</text><text font-family="Arial,Arial_MSFontService,sans-serif" font-weight="400" font-size="12" transform="matrix(0.541 0 0 0.539811 575.71 392)">a</text><text font-family="Arial,Arial_MSFontService,sans-serif" font-weight="400" font-size="12" transform="matrix(0.541 0 0 0.539811 579.319 392)">t</text><text font-family="Arial,Arial_MSFontService,sans-serif" font-weight="400" font-size="12" transform="matrix(0.541 0 0 0.539811 581.124 392)">c</text><text font-family="Arial,Arial_MSFontService,sans-serif" font-weight="400" font-size="12" transform="matrix(0.541 0 0 0.539811 584.37 392)">h</text><text font-family="Arial,Arial_MSFontService,sans-serif" font-weight="400" font-size="12" transform="matrix(0.541 0 0 0.539811 587.98 392)">_</text><text font-family="Arial,Arial_MSFontService,sans-serif" font-weight="400" font-size="12" transform="matrix(0.541 0 0 0.539811 591.589 392)">b</text><text font-family="Arial,Arial_MSFontService,sans-serif" font-weight="400" font-size="12" transform="matrix(0.541 0 0 0.539811 595.199 392)">~</text><text font-family="Arial,Arial_MSFontService,sans-serif" font-weight="400" font-size="12" transform="matrix(0.541 0 0 0.539811 598.99 392)">[</text><text font-family="Arial,Arial_MSFontService,sans-serif" font-weight="400" font-size="12" transform="matrix(0.541 0 0 0.539811 600.795 392)">3</text><text font-family="Arial,Arial_MSFontService,sans-serif" font-weight="400" font-size="12" transform="matrix(0.541 0 0 0.539811 604.404 392)">.</text><text font-family="Arial,Arial_MSFontService,sans-serif" font-weight="400" font-size="12" transform="matrix(0.541 0 0 0.539811 606.209 392)">.</text><text font-family="Arial,Arial_MSFontService,sans-serif" font-weight="400" font-size="12" transform="matrix(0.541 0 0 0.539811 608.014 392)">0</text><text font-family="Arial,Arial_MSFontService,sans-serif" font-weight="400" font-size="12" transform="matrix(0.541 0 0 0.539811 611.624 392)">]</text><path d="M97.166 118.758 102.564 118.758" stroke="#06476F" stroke-width="1.61943" stroke-miterlimit="10" fill="none" transform="matrix(1.0022 0 0 1 458.495 281.971)"/><text fill="#06476F" font-family="Arial,Arial_MSFontService,sans-serif" font-weight="400" font-size="10" transform="matrix(0.541 0 0 0.539811 557.195 399)">0</text><path d="M97.166 129.555 102.564 129.555" stroke="#06476F" stroke-width="1.61943" stroke-miterlimit="10" fill="none" transform="matrix(1.0022 0 0 1 458.495 281.971)"/><text fill="#06476F" font-family="Arial,Arial_MSFontService,sans-serif" font-weight="400" font-size="10" transform="matrix(0.541 0 0 0.539811 557.195 410)">1</text><path d="M113.36 107.962 113.36 112.281" stroke="#06476F" stroke-width="1.61943" stroke-miterlimit="10" fill="none" transform="matrix(1.0022 0 0 1 458.495 281.971)"/><path d="M129.555 124.157 124.157 124.157" stroke="#06476F" stroke-width="1.61943" stroke-miterlimit="10" fill="none" transform="matrix(1.0022 0 0 1 458.495 281.971)"/><path d="M220.243 101.485 241.835 109.582 241.835 125.776 220.243 133.873Z" transform="matrix(1.0022 0 0 1 458.495 281.971)"/><path d="M218.084 99.3253 239.676 107.422 239.676 123.617 218.084 131.714Z" fill="#477777" transform="matrix(1.0022 0 0 1 458.495 281.971)"/><path d="M218.084 99.3253 239.676 107.422 239.676 123.617 218.084 131.714Z" stroke="#2D2D2D" stroke-width="0.539811" stroke-miterlimit="10" fill="none" transform="matrix(1.0022 0 0 1 458.495 281.971)"/><path d="M215.925 97.166 237.517 105.263 237.517 121.458 215.925 129.555Z" fill="#73ACAC" transform="matrix(1.0022 0 0 1 458.495 281.971)"/><path d="M215.925 97.166 237.517 105.263 237.517 121.458 215.925 129.555Z" stroke="#2D2D2D" stroke-width="0.539811" stroke-miterlimit="10" fill="none" transform="matrix(1.0022 0 0 1 458.495 281.971)"/><text font-family="Arial,Arial_MSFontService,sans-serif" font-weight="400" font-size="12" transform="matrix(0.541 0 0 0.539811 687.879 381)">l</text><text font-family="Arial,Arial_MSFontService,sans-serif" font-weight="400" font-size="12" transform="matrix(0.541 0 0 0.539811 689.32 381)">a</text><text font-family="Arial,Arial_MSFontService,sans-serif" font-weight="400" font-size="12" transform="matrix(0.541 0 0 0.539811 692.929 381)">t</text><text font-family="Arial,Arial_MSFontService,sans-serif" font-weight="400" font-size="12" transform="matrix(0.541 0 0 0.539811 694.734 381)">c</text><text font-family="Arial,Arial_MSFontService,sans-serif" font-weight="400" font-size="12" transform="matrix(0.541 0 0 0.539811 697.98 381)">h</text><text font-family="Arial,Arial_MSFontService,sans-serif" font-weight="400" font-size="12" transform="matrix(0.541 0 0 0.539811 701.59 381)">_</text><text font-family="Arial,Arial_MSFontService,sans-serif" font-weight="400" font-size="12" transform="matrix(0.541 0 0 0.539811 705.199 381)">b</text><text font-family="Arial,Arial_MSFontService,sans-serif" font-weight="400" font-size="12" transform="matrix(0.541 0 0 0.539811 708.809 381)">~</text><text font-family="Arial,Arial_MSFontService,sans-serif" font-weight="400" font-size="12" transform="matrix(0.541 0 0 0.539811 712.6 381)">[</text><text font-family="Arial,Arial_MSFontService,sans-serif" font-weight="400" font-size="12" transform="matrix(0.541 0 0 0.539811 714.405 381)">7</text><text font-family="Arial,Arial_MSFontService,sans-serif" font-weight="400" font-size="12" transform="matrix(0.541 0 0 0.539811 718.014 381)">.</text><text font-family="Arial,Arial_MSFontService,sans-serif" font-weight="400" font-size="12" transform="matrix(0.541 0 0 0.539811 719.819 381)">.</text><text font-family="Arial,Arial_MSFontService,sans-serif" font-weight="400" font-size="12" transform="matrix(0.541 0 0 0.539811 721.624 381)">4</text><text font-family="Arial,Arial_MSFontService,sans-serif" font-weight="400" font-size="12" transform="matrix(0.541 0 0 0.539811 725.234 381)">]</text><path d="M210.526 107.962 215.925 107.962" stroke="#06476F" stroke-width="1.61943" stroke-miterlimit="10" fill="none" transform="matrix(1.0022 0 0 1 458.495 281.971)"/><text fill="#06476F" font-family="Arial,Arial_MSFontService,sans-serif" font-weight="400" font-size="10" transform="matrix(0.541 0 0 0.539811 670.805 388)">0</text><path d="M210.526 118.758 215.925 118.758" stroke="#06476F" stroke-width="1.61943" stroke-miterlimit="10" fill="none" transform="matrix(1.0022 0 0 1 458.495 281.971)"/><text fill="#06476F" font-family="Arial,Arial_MSFontService,sans-serif" font-weight="400" font-size="10" transform="matrix(0.541 0 0 0.539811 670.805 399)">1</text><text fill="#06476F" font-family="Arial,Arial_MSFontService,sans-serif" font-weight="400" font-size="12" transform="matrix(0.541 0 0 0.539811 656.674 399)">4</text><text fill="#06476F" font-family="Arial,Arial_MSFontService,sans-serif" font-weight="400" font-size="12" transform="matrix(0.541 0 0 0.539811 660.283 399)">'</text><text fill="#06476F" font-family="Arial,Arial_MSFontService,sans-serif" font-weight="400" font-size="12" transform="matrix(0.541 0 0 0.539811 661.523 399)">h</text><text fill="#06476F" font-family="Arial,Arial_MSFontService,sans-serif" font-weight="400" font-size="12" transform="matrix(0.541 0 0 0.539811 665.133 399)">0</text><path d="M226.721 97.166 226.721 101.485" stroke="#06476F" stroke-width="1.61943" stroke-miterlimit="10" fill="none" transform="matrix(1.0022 0 0 1 458.495 281.971)"/><path d="M242.915 113.36 237.517 113.36" stroke="#06476F" stroke-width="1.61943" stroke-miterlimit="10" fill="none" transform="matrix(1.0022 0 0 1 458.495 281.971)"/><path d="M0 75.5736-3.77868 79.3523-11.336 79.3523-11.336 71.7949-3.77868 71.7949Z" stroke="#0000FF" stroke-width="0.539811" stroke-miterlimit="10" fill="none" transform="matrix(1.0022 0 0 1 458.495 281.971)"/><text font-family="Arial,Arial_MSFontService,sans-serif" font-weight="400" font-size="12" transform="matrix(0.541 0 0 0.539811 416.82 360)">s</text><text font-family="Arial,Arial_MSFontService,sans-serif" font-weight="400" font-size="12" transform="matrix(0.541 0 0 0.539811 420.066 360)">a</text><text font-family="Arial,Arial_MSFontService,sans-serif" font-weight="400" font-size="12" transform="matrix(0.541 0 0 0.539811 423.676 360)">v</text><text font-family="Arial,Arial_MSFontService,sans-serif" font-weight="400" font-size="12" transform="matrix(0.541 0 0 0.539811 426.922 360)">e</text><text font-family="Arial,Arial_MSFontService,sans-serif" font-weight="400" font-size="12" transform="matrix(0.541 0 0 0.539811 430.531 360)">_</text><text font-family="Arial,Arial_MSFontService,sans-serif" font-weight="400" font-size="12" transform="matrix(0.541 0 0 0.539811 434.141 360)">b</text><text font-family="Arial,Arial_MSFontService,sans-serif" font-weight="400" font-size="12" transform="matrix(0.541 0 0 0.539811 437.751 360)">_</text><text font-family="Arial,Arial_MSFontService,sans-serif" font-weight="400" font-size="12" transform="matrix(0.541 0 0 0.539811 441.36 360)">n</text><path d="M383.266 118.758 383.266 114.98 390.823 114.98 394.602 118.758 390.823 122.537 383.266 122.537Z" stroke="#0000FF" stroke-width="1.61943" stroke-miterlimit="10" fill="none" transform="matrix(1.0022 0 0 1 458.495 281.971)"/><text font-family="Arial,Arial_MSFontService,sans-serif" font-weight="400" font-size="12" transform="matrix(0.541 0 0 0.539811 858.294 403)">q</text><text font-family="Arial,Arial_MSFontService,sans-serif" font-weight="400" font-size="12" transform="matrix(0.541 0 0 0.539811 861.903 403)">_</text><text font-family="Arial,Arial_MSFontService,sans-serif" font-weight="400" font-size="12" transform="matrix(0.541 0 0 0.539811 865.513 403)">b</text><text font-family="Arial,Arial_MSFontService,sans-serif" font-weight="400" font-size="12" transform="matrix(0.541 0 0 0.539811 869.122 403)">[</text><text font-family="Arial,Arial_MSFontService,sans-serif" font-weight="400" font-size="12" transform="matrix(0.541 0 0 0.539811 870.927 403)">3</text><text font-family="Arial,Arial_MSFontService,sans-serif" font-weight="400" font-size="12" transform="matrix(0.541 0 0 0.539811 874.536 403)">.</text><text font-family="Arial,Arial_MSFontService,sans-serif" font-weight="400" font-size="12" transform="matrix(0.541 0 0 0.539811 876.341 403)">.</text><text font-family="Arial,Arial_MSFontService,sans-serif" font-weight="400" font-size="12" transform="matrix(0.541 0 0 0.539811 878.146 403)">0</text><text font-family="Arial,Arial_MSFontService,sans-serif" font-weight="400" font-size="12" transform="matrix(0.541 0 0 0.539811 881.756 403)">]</text><path d="M113.36 16.1943 113.36 5.39811 75.5736 5.39811 75.5736 97.166 113.36 97.166 113.36 107.962" stroke="#2D2D2D" stroke-width="0.539811" stroke-miterlimit="10" fill="none" transform="matrix(1.0022 0 0 1 458.495 281.971)"/><path d="M43.1849 70.1755 75.5736 70.1755" stroke="#2D2D2D" stroke-width="0.539811" stroke-miterlimit="10" fill="none" transform="matrix(1.0022 0 0 1 458.495 281.971)"/><path d="M74.494 69.0958 77.193 69.0958 77.193 71.7949 74.494 71.7949Z" fill="#2D2D2D" transform="matrix(1.0022 0 0 1 458.495 281.971)"/><path d="M0 48.583 64.7774 48.583 64.7774 59.3792 296.896 59.3792" stroke="#2D2D2D" stroke-width="0.539811" stroke-miterlimit="10" fill="none" transform="matrix(1.0022 0 0 1 458.495 281.971)"/><path d="M295.817 58.2996 298.516 58.2996 298.516 60.9987 295.817 60.9987Z" fill="#2D2D2D" transform="matrix(1.0022 0 0 1 458.495 281.971)"/><path d="M318.489 43.1849 296.896 43.1849 296.896 118.758 318.489 118.758" stroke="#2D2D2D" stroke-width="0.539811" stroke-miterlimit="10" fill="none" transform="matrix(1.0022 0 0 1 458.495 281.971)"/><path d="M0 86.3698 183.536 86.3698" stroke="#2D2D2D" stroke-width="0.539811" stroke-miterlimit="10" fill="none" transform="matrix(1.0022 0 0 1 458.495 281.971)"/><path d="M182.456 85.2902 185.155 85.2902 185.155 87.9892 182.456 87.9892Z" fill="#2D2D2D" transform="matrix(1.0022 0 0 1 458.495 281.971)"/><path d="M226.721 16.1943 226.721 5.39811 183.536 5.39811 183.536 86.3698 226.721 86.3698 226.721 97.166" stroke="#2D2D2D" stroke-width="0.539811" stroke-miterlimit="10" fill="none" transform="matrix(1.0022 0 0 1 458.495 281.971)"/><path d="M0 64.7774 10.7962 64.7774" stroke="#2D2D2D" stroke-width="0.539811" stroke-miterlimit="10" fill="none" transform="matrix(1.0022 0 0 1 458.495 281.971)"/><path d="M0 75.5736 10.7962 75.5736" stroke="#2D2D2D" stroke-width="0.539811" stroke-miterlimit="10" fill="none" transform="matrix(1.0022 0 0 1 458.495 281.971)"/><path d="M0 37.7868 53.9811 37.7868 53.9811 129.555 97.166 129.555" stroke="#2D2D2D" stroke-width="1.61943" stroke-miterlimit="10" fill="none" transform="matrix(1.0022 0 0 1 458.495 281.971)"/><path d="M53.9811 37.7868 97.166 37.7868" stroke="#2D2D2D" stroke-width="1.61943" stroke-miterlimit="10" fill="none" transform="matrix(1.0022 0 0 1 458.495 281.971)"/><path d="M52.3617 36.1674 56.1404 36.1674 56.1404 39.946 52.3617 39.946Z" fill="#2D2D2D" transform="matrix(1.0022 0 0 1 458.495 281.971)"/><path d="M97.166 118.758 86.3698 118.758 86.3698 151.147 372.47 151.147 372.47 118.758 361.674 118.758" stroke="#2D2D2D" stroke-width="1.61943" stroke-miterlimit="10" fill="none" transform="matrix(1.0022 0 0 1 458.495 281.971)"/><path d="M372.47 118.758 383.266 118.758" stroke="#2D2D2D" stroke-width="1.61943" stroke-miterlimit="10" fill="none" transform="matrix(1.0022 0 0 1 458.495 281.971)"/><path d="M370.85 117.139 374.629 117.139 374.629 120.918 370.85 120.918Z" fill="#2D2D2D" transform="matrix(1.0022 0 0 1 458.495 281.971)"/><path d="M97.166 26.9906 86.3698 26.9906 86.3698 75.5736 372.47 75.5736 372.47 43.1849 361.674 43.1849" stroke="#2D2D2D" stroke-width="1.61943" stroke-miterlimit="10" fill="none" transform="matrix(1.0022 0 0 1 458.495 281.971)"/><path d="M372.47 43.1849 383.266 43.1849" stroke="#2D2D2D" stroke-width="1.61943" stroke-miterlimit="10" fill="none" transform="matrix(1.0022 0 0 1 458.495 281.971)"/><path d="M370.85 41.5655 374.629 41.5655 374.629 45.3442 370.85 45.3442Z" fill="#2D2D2D" transform="matrix(1.0022 0 0 1 458.495 281.971)"/><path d="M129.555 32.3887 172.74 32.3887 172.74 26.9906 210.526 26.9906" stroke="#2D2D2D" stroke-width="1.61943" stroke-miterlimit="10" fill="none" transform="matrix(1.0022 0 0 1 458.495 281.971)"/><path d="M242.915 32.3887 318.489 32.3887" stroke="#2D2D2D" stroke-width="1.61943" stroke-miterlimit="10" fill="none" transform="matrix(1.0022 0 0 1 458.495 281.971)"/><path d="M129.555 124.157 172.74 124.157 172.74 107.962 210.526 107.962" stroke="#2D2D2D" stroke-width="1.61943" stroke-miterlimit="10" fill="none" transform="matrix(1.0022 0 0 1 458.495 281.971)"/><path d="M242.915 113.36 286.1 113.36 286.1 107.962 318.489 107.962" stroke="#2D2D2D" stroke-width="1.61943" stroke-miterlimit="10" fill="none" transform="matrix(1.0022 0 0 1 458.495 281.971)"/></g></g></svg>